LG_Stand_to_Walk04																		
version=1																		
nRows=108																		
nColumns=19																		
inDegrees=yes																		
endheader																		
time	ground_force2_vx	ground_force2_vy	ground_force2_vz	ground_force2_px	ground_force2_py	ground_force2_pz	ground_torque2_x	ground_torque2_y	ground_torque2_z	ground_force1_vx	ground_force1_vy	ground_force1_vz	ground_force1_px	ground_force1_py	ground_force1_pz	ground_torque1_x	ground_torque1_y	ground_torque1_z
4.432	0	0	0	0.2	0	-0.3	0	0	0	53.215832	744.652649	132.100784	-0.133006	0	0.357704	-1.00E-05	-0.02808	-7.00E-06
4.433	0	0	0	0.2	0	-0.3	0	0	0	53.215832	744.319397	132.101028	-0.132776	0	0.35858	-1.80E-05	-0.02808	-1.00E-06
4.434	0	0	0	0.2	0	-0.3	0	0	0	52.739346	742.078735	132.101379	-0.132776	0	0.35858	-2.40E-05	-0.209849	-7.00E-06
4.435	0	0	0	0.2	0	-0.3	0	0	0	52.424335	741.901672	132.649536	-0.132688	0	0.358657	-2.40E-05	-0.209849	-2.00E-06
4.436	0	0	0	0.2	0	-0.3	0	0	0	52.182121	737.95343	132.415466	-0.132502	0	0.358821	-2.40E-05	-0.209849	-6.00E-06
4.437	0	0	0	0.2	0	-0.3	0	0	0	51.875767	734.868774	132.806961	-0.132502	0	0.358821	-1.70E-05	-0.143549	-6.00E-06
4.438	0	0	0	0.2	0	-0.3	0	0	0	51.400005	734.868774	133.120895	-0.132414	0	0.359333	-1.70E-05	-0.179694	-7.00E-06
4.439	0	0	0	0.2	0	-0.3	0	0	0	51.318546	734.868774	133.591492	-0.132491	0	0.360398	-1.70E-05	-0.179694	-7.00E-06
4.44	0	0	0	0.2	0	-0.3	0	0	0	50.611393	731.40332	133.669525	-0.132315	0	0.360398	-1.70E-05	-0.179694	-2.00E-06
4.441	0	0	0	0.2	0	-0.3	0	0	0	49.750702	727.636047	133.591492	-0.132266	0	0.35993	-1.20E-05	-0.196576	-2.00E-06
4.442	0	0	0	0.2	0	-0.3	0	0	0	48.965698	727.285034	133.82692	-0.132103	0	0.359814	-2.10E-05	-0.21061	-3.00E-06
4.443	0	0	0	0.2	0	-0.3	0	0	0	48.886406	722.64209	133.905685	-0.132266	0	0.359914	-1.90E-05	-0.21061	-5.00E-06
4.444	0	0	0	0.2	0	-0.3	0	0	0	48.415691	721.271545	133.905685	-0.132185	0	0.359914	-1.90E-05	-0.202433	-5.00E-06
4.445	0	0	0	0.2	0	-0.3	0	0	0	48.257103	720.758972	133.905762	-0.132185	0	0.360683	-1.30E-05	-0.202433	-5.00E-06
4.446	0	0	0	0.2	0	-0.3	0	0	0	47.314953	717.994446	133.827835	-0.131882	0	0.360683	-4.00E-06	-0.272701	-5.00E-06
4.447	0	0	0	0.2	0	-0.3	0	0	0	46.764946	712.334778	133.593246	-0.131882	0	0.361156	-8.00E-06	-0.272701	-7.00E-06
4.448	0	0	0	0.2	0	-0.3	0	0	0	45.52005	710.268372	133.593246	-0.131783	0	0.361156	-8.00E-06	-0.180672	-7.00E-06
4.449	0	0	0	0.2	0	-0.3	0	0	0	45.202877	705.454529	133.828522	-0.131929	0	0.361156	-1.70E-05	-0.072455	-8.00E-06
4.45	0	0	0	0.2	0	-0.3	0	0	0	44.578625	702.712402	133.828522	-0.132124	0	0.361573	-1.70E-05	-0.072455	-9.00E-06
4.451	0	0	0	0.2	0	-0.3	0	0	0	44.577904	702.380371	133.828522	-0.132124	0	0.362162	-6.00E-06	-0.072455	-9.00E-06
4.452	0	0	0	0.2	0	-0.3	0	0	0	43.561512	699.259766	133.515167	-0.131716	0	0.362741	-6.00E-06	-0.171788	-9.00E-06
4.453	0	0	0	0.2	0	-0.3	0	0	0	42.620808	691.536438	133.593735	-0.131716	0	0.362741	-2.60E-05	-0.171788	-2.00E-06
4.454	0	0	0	0.2	0	-0.3	0	0	0	41.763725	689.145752	133.358582	-0.131716	0	0.362741	-2.60E-05	-0.065627	-2.00E-06
4.455	0	0	0	0.2	0	-0.3	0	0	0	40.671646	688.614197	133.280334	-0.131284	0	0.36283	-1.90E-05	-0.042758	-2.00E-06
4.456	0	0	0	0.2	0	-0.3	0	0	0	40.436649	681.403503	133.280334	-0.131284	0	0.363337	-1.70E-05	-0.010396	1.00E-06
4.457	0	0	0	0.2	0	-0.3	0	0	0	40.050282	679.504089	133.280121	-0.131207	0	0.364016	-1.00E-06	-0.010396	-4.00E-06
4.458	0	0	0	0.2	0	-0.3	0	0	0	39.34457	676.243652	133.280121	-0.131207	0	0.364206	-1.30E-05	-0.089518	-1.00E-06
4.459	0	0	0	0.2	0	-0.3	0	0	0	38.718155	670.731201	132.183304	-0.131153	0	0.364016	-1.30E-05	-0.089518	-1.00E-06
4.46	0	0	0	0.2	0	-0.3	0	0	0	37.15897	667.830994	132.105042	-0.13108	0	0.364531	-1.70E-05	0.027407	-1.00E-06
4.461	0	0	0	0.2	0	-0.3	0	0	0	36.925419	664.902222	132.105042	-0.13108	0	0.364105	-1.70E-05	0.027407	0.00E+00
4.462	0	0	0	0.2	0	-0.3	0	0	0	36.06617	662.325928	132.183304	-0.131048	0	0.364749	-9.00E-06	0.023617	-2.00E-06
4.463	0	0	0	0.2	0	-0.3	0	0	0	35.67403	659.407532	132.49678	-0.130999	0	0.365286	-9.00E-06	0.023617	0.00E+00
4.464	0	0	0	0.2	0	-0.3	0	0	0	34.65836	655.624756	132.49678	-0.130999	0	0.365323	-9.00E-06	0.023617	-6.00E-06
4.465	0	0	0	0.2	0	-0.3	0	0	0	33.799114	646.334595	132.34024	-0.130823	0	0.365329	-6.00E-06	0.017088	-1.00E-06
4.466	0	0	0	0.2	0	-0.3	0	0	0	31.919146	642.919373	132.34024	-0.130823	0	0.365329	-3.00E-06	0.017088	-8.00E-06
4.467	0	0	0	0.2	0	-0.3	0	0	0	30.514215	639.841675	132.57576	-0.130823	0	0.365329	-3.00E-06	0.068906	-3.00E-06
4.468	0	0	0	0.2	0	-0.3	0	0	0	30.361401	636.714966	132.654053	-0.130463	0	0.366162	-1.70E-05	0.142093	-3.00E-06
4.469	0	0	0	0.2	0	-0.3	0	0	0	29.340679	631.070312	132.654053	-0.130463	0	0.366785	-1.70E-05	0.183004	-2.00E-06
4.47	0	0	0	0.2	0	-0.3	0	0	0	28.716429	624.710449	132.027847	-0.130463	0	0.36667	-1.10E-05	0.142093	-2.00E-06
4.471	0	0	0	0.2	0	-0.3	0	0	0	28.168589	621.275269	132.027847	-0.130477	0	0.366785	-1.10E-05	0.10212	-5.00E-06
4.472	0	0	0	0.2	0	-0.3	0	0	0	26.445765	610.622314	131.792648	-0.130334	0	0.367158	-1.00E-05	0.10212	-5.00E-06
4.473	0	0	0	0.2	0	-0.3	0	0	0	25.274391	607.538818	131.715012	-0.130334	0	0.367314	-1.10E-05	0.17285	-1.00E-06
4.474	0	0	0	0.2	0	-0.3	0	0	0	24.415146	605.134277	131.479782	-0.129921	0	0.367314	-1.00E-05	0.17285	-1.00E-06
4.475	0	0	0	0.2	0	-0.3	0	0	0	23.707993	599.448608	130.618546	-0.129557	0	0.368099	-4.00E-06	0.135563	-5.00E-06
4.476	0	0	0	0.2	0	-0.3	0	0	0	23.083738	591.373901	130.618546	-0.129317	0	0.368988	-4.00E-06	0.131498	-5.00E-06
4.477	0	0	0	0.2	0	-0.3	0	0	0	22.690878	585.356628	130.618576	-0.129557	0	0.368988	-7.00E-06	0.131498	-4.00E-06
4.478	0	0	0	0.2	0	-0.3	0	0	0	20.578798	576.956726	130.618576	-0.129563	0	0.368646	-9.00E-06	0.073361	1.00E-06
4.479	0	0	0	0.2	0	-0.3	0	0	0	20.423098	573.534912	129.756943	-0.129703	0	0.368646	-7.00E-06	0.073361	1.00E-06
4.48	0	0	0	0.2	0	-0.3	0	0	0	19.563128	571.474792	129.051895	-0.129563	0	0.369383	-7.00E-06	0.157704	-1.00E-05
4.481	0	0	0	0.2	0	-0.3	0	0	0	19.405983	562.699951	128.0336	-0.129317	0	0.369884	-6.00E-06	0.157704	-1.00E-05
4.482	0	0	0	0.2	0	-0.3	0	0	0	17.683161	554.973511	126.466782	-0.12926	0	0.37025	-7.00E-06	0.09602	-5.00E-06
4.483	0	0	0	0.2	0	-0.3	0	0	0	16.821026	547.595032	125.761887	-0.12926	0	0.370483	-1.50E-05	0.09602	-4.00E-06
4.484	0	0	0	0.2	0	-0.3	0	0	0	16.431774	543.133667	125.135117	-0.129115	0	0.370869	-1.50E-05	0.118422	-4.00E-06
4.485	0	0	0	0.2	0	-0.3	0	0	0	15.026126	534.717285	124.195152	-0.129115	0	0.370869	-1.50E-05	0.249501	-1.00E-06
4.486	0	0	0	0.2	0	-0.3	0	0	0	14.789685	530.785156	123.176903	-0.129115	0	0.370871	-1.20E-05	0.249501	-1.00E-06
4.487	0	0	0	0.2	0	-0.3	0	0	0	13.381154	527.499451	123.098488	-0.128928	0	0.372605	-1.20E-05	0.272922	-1.00E-06
4.488	0	0	0	0.2	0	-0.3	0	0	0	13.225451	516.678406	120.669914	-0.128867	0	0.372605	-8.00E-06	0.154088	-1.00E-06
4.489	0	0	0	0.2	0	-0.3	0	0	0	11.579757	507.587341	119.72995	-0.128627	0	0.372684	-8.00E-06	0.272922	-6.00E-06
4.49	0	0	0	0.2	0	-0.3	0	0	0	11.190501	500.029053	118.633324	-0.12875	0	0.372921	-5.00E-06	0.301038	-1.00E-06
4.491	0	0	0	0.2	0	-0.3	0	0	0	9.15339	491.449768	118.085175	-0.12875	0	0.372952	-3.00E-06	0.415335	-5.00E-06
4.492	0	0	0	0.2	0	-0.3	0	0	0	8.36694	485.966705	116.832047	-0.12875	0	0.373615	-3.00E-06	0.415335	-1.00E-06
4.493	0	0	0	0.2	0	-0.3	0	0	0	8.36694	480.276855	115.813507	-0.12835	0	0.374526	-7.00E-06	0.240596	-1.00E-06
4.494	0	0	0	0.2	0	-0.3	0	0	0	7.58699	471.357025	113.933372	-0.12768	0	0.374526	-1.30E-05	0.240596	-1.00E-06
4.495	0	0	0	0.2	0	-0.3	0	0	0	6.41201	462.091919	112.601868	-0.12768	0	0.374526	-1.50E-05	0.294234	-1.00E-06
4.496	0	0	0	0.2	0	-0.3	0	0	0	6.41201	455.237244	111.270012	-0.127651	0	0.374636	-1.50E-05	0.319575	-1.00E-06
4.497	0	0	0	0.2	0	-0.3	0	0	0	6.254142	444.232544	110.016647	-0.127481	0	0.375473	-6.00E-06	0.369942	1.00E-06
4.498	0	0	0	0.2	0	-0.3	0	0	0	5.941297	437.545624	108.841805	-0.127481	0	0.376208	-4.00E-06	0.557342	-1.00E-06
4.499	0	0	0	0.2	0	-0.3	0	0	0	5.627007	433.42218	107.353325	-0.127481	0	0.377529	-4.00E-06	0.588766	0.00E+00
4.5	0	0	0	0.2	0	-0.3	0	0	0	5.393454	423.623291	105.629738	-0.127411	0	0.377529	-5.00E-06	0.588766	-6.00E-06
4.501	0	0	0	0.2	0	-0.3	0	0	0	3.982033	412.483978	103.90638	-0.127411	0	0.377193	-8.00E-06	0.608337	-6.00E-06
4.502	0	0	0	0.2	0	-0.3	0	0	0	3.432747	406.49411	102.966614	-0.127574	0	0.377193	-8.00E-06	0.565555	-6.00E-06
4.503	0	0	0	0.2	0	-0.3	0	0	0	2.882017	395.666779	101.478096	-0.127574	0	0.378104	-4.00E-06	0.669231	-5.00E-06
4.504	0	0	0	0.2	0	-0.3	0	0	0	2.648464	387.610168	99.911446	-0.12741	0	0.378483	-4.00E-06	0.73732	-4.00E-06
4.505	0	0	0	0.2	0	-0.3	0	0	0	2.567007	377.818573	98.579788	-0.127281	0	0.379791	-3.00E-06	0.73732	-4.00E-06
4.506	0	0	0	0.2	0	-0.3	0	0	0	2.564842	370.093262	95.916183	-0.126896	0	0.379927	-1.10E-05	0.725208	-4.00E-06
4.507	0	0	0	0.2	0	-0.3	0	0	0	0.52845	357.565735	94.819595	-0.126896	0	0.380194	-9.00E-06	0.725208	-4.00E-06
4.508	0	0	0	0.2	0	-0.3	0	0	0	-0.096523	350.884583	92.312584	-0.126896	0	0.380749	-9.00E-06	0.781896	-5.00E-06
4.509	0	0	0	0.2	0	-0.3	0	0	0	-0.329353	341.934631	90.510651	-0.12675	0	0.383106	-5.00E-06	0.781896	-3.00E-06
4.51	0	0	0	0.2	0	-0.3	0	0	0	-0.9601	333.69751	88.160339	-0.12675	0	0.383695	-5.00E-06	0.781896	-3.00E-06
4.511	0	0	0	0.2	0	-0.3	0	0	0	-1.271503	325.983795	86.123581	-0.12665	0	0.384341	-3.00E-06	0.806929	-2.00E-06
4.512	0	0	0	0.2	0	-0.3	0	0	0	-1.352962	317.226288	83.773262	-0.126362	0	0.385448	-8.00E-06	0.837607	-1.00E-06
4.513	0	0	0	0.2	0	-0.3	0	0	0	-2.057227	305.895264	81.34465	-0.126041	0	0.386062	-5.00E-06	0.837607	-1.00E-06
4.514	0	0	0	0.2	0	-0.3	0	0	0	-3.308616	296.457764	78.680969	-0.126041	0	0.386689	-5.00E-06	0.842792	-1.00E-06
4.515	0	0	0	0.2	0	-0.3	0	0	0	-3.627236	291.832153	76.80088	-0.126091	0	0.386974	-5.00E-06	0.844954	-1.00E-06
4.516	0	0	0	0.2	0	-0.3	0	0	0	-3.627236	285.135559	74.058784	-0.126091	0	0.389024	-3.00E-06	0.972893	-1.00E-06
4.517	0	0	0	0.2	0	-0.3	0	0	0	-3.627236	272.5961	72.335274	-0.126096	0	0.390486	-5.00E-06	0.972893	0
4.518	0	0	0	0.2	0	-0.3	0	0	0	-3.860789	264.360077	69.514854	-0.125808	0	0.391897	-7.00E-06	1.030742	0
4.519	0	0	0	0.2	0	-0.3	0	0	0	-3.942967	256.815704	66.537888	-0.125808	0	0.391897	-7.00E-06	1.050056	-1.00E-06
4.52	0	0	0	0.2	0	-0.3	0	0	0	-4.723643	246.521927	63.403946	-0.125417	0	0.392324	-6.00E-06	1.052875	-1.00E-06
4.521	0	0	0	0.2	0	-0.3	0	0	0	-4.805102	240.176346	61.053825	-0.125417	0	0.393207	-5.00E-06	1.083648	-1.00E-06
4.522	0	0	0	0.2	0	-0.3	0	0	0	-4.886561	234.698288	58.311775	-0.125502	0	0.393866	-4.00E-06	1.083648	-1.00E-06
4.523	0	0	0	0.2	0	-0.3	0	0	0	-5.123722	222.849625	55.804718	-0.126315	0	0.395171	-3.00E-06	1.113822	-2.00E-06
4.524	0	0	0	0.2	0	-0.3	0	0	0	-5.202295	215.994141	52.984207	-0.126184	0	0.396819	-3.00E-06	1.049753	-1.00E-06
4.525	0	0	0	0.2	0	-0.3	0	0	0	-5.203737	206.549667	50.398697	-0.126184	0	0.399638	-3.00E-06	1.093947	-1.00E-06
4.526	0	0	0	0.2	0	-0.3	0	0	0	-6.141556	196.413635	47.34333	-0.126184	0	0.399638	-3.00E-06	1.049753	-1.00E-06
4.527	0	0	0	0.2	0	-0.3	0	0	0	-6.141556	192.32576	44.13089	-0.125884	0	0.400493	-2.00E-06	1.058148	-1.00E-06
4.528	0	0	0	0.2	0	-0.3	0	0	0	-5.753023	188.707611	42.01548	-0.125884	0	0.403294	-2.00E-06	1.036217	-1.00E-06
4.529	0	0	0	0.2	0	-0.3	0	0	0	-5.361604	178.059326	38.959824	-0.125391	0	0.404929	-2.00E-06	1.058148	-1.00E-06
4.53	0	0	0	0.2	0	-0.3	0	0	0	-5.361604	170.514206	37.314484	-0.125015	0	0.405308	-6.00E-06	1.036217	-1.00E-06
4.531	0	0	0	0.2	0	-0.3	0	0	0	-6.146608	156.621552	35.042458	-0.125015	0	0.410783	-2.00E-06	0.982866	-1.00E-06
4.532	0	0	0	0.2	0	-0.3	0	0	0	-6.146608	153.808746	33.632107	-0.126456	0	0.411216	-4.00E-06	0.982866	-1.00E-06
4.533	0	0	0	0.2	0	-0.3	0	0	0	-6.067312	152.505875	33.00526	-0.126456	0	0.411216	-1.00E-06	1.01646	-1.00E-06
4.534	0	0	0	0.2	0	-0.3	0	0	0	-5.285195	147.703995	32.299999	-0.125541	0	0.414021	-4.00E-06	1.032255	-1.00E-06
4.535	0	0	0	0.2	0	-0.3	0	0	0	-5.285195	141.355362	30.419788	-0.125541	0	0.416632	-3.00E-06	1.01646	-1.00E-06
4.536	0	0	0	0.2	0	-0.3	0	0	0	-5.285195	129.856583	27.990734	-0.125541	0	0.416958	-3.00E-06	1.102475	-2.00E-06
4.537	0	0	0	0.2	0	-0.3	0	0	0	-5.203013	125.551834	26.815296	-0.125466	0	0.423406	-3.00E-06	1.049146	-2.00E-06
4.538	0	0	0	0.2	0	-0.3	0	0	0	-5.203013	119.735153	23.759563	-0.124778	0	0.425274	-3.00E-06	1.049146	-1.00E-06
4.539	0	0	0	0.2	0	-0.3	0	0	0	-5.590825	113.899551	22.27084	-0.124778	0	0.425274	-3.00E-06	1.031962	0
